<svg xmlns="http://www.w3.org/2000/svg" pointer-events="none" class="leaflet-zoom-animated" width="1254" height="702" viewBox="-104 -58 1254 702" style="transform: translate3d(-104px, -58px, 0px);"><g><path class="leaflet-interactive" stroke="#201920" stroke-opacity="1" stroke-width="2" stroke-linecap="round" stroke-linejoin="round" fill="none" d="M82 210L81 203L78 200L83 197L82 194L85 189L89 189L92 186L94 186L94 183L97 184L102 181L104 186L110 184L110 186L114 182L115 177L117 175L128 175L127 174L130 173L131 170L136 169L145 163L154 160L156 156L154 150L159 146L157 146L157 144L161 143L161 137L157 129L157 119L154 116L152 117L153 113L157 113L158 111L164 111L172 107L175 110L178 109L181 111L182 108L178 105L178 103L187 77L191 79L192 78L196 81L206 81L209 83L212 80L214 80L217 77L215 61L219 56L227 55L230 49L229 46L231 44L242 44L242 48L240 49L252 62L256 64L261 63L264 67L266 66L268 69L270 69L272 77L277 82L278 85L278 90L276 92L278 96L274 101L274 106L276 110L291 113L304 113L320 124L328 125L327 128L330 132L333 141L339 149L348 148L374 152L389 150L398 152L403 157L410 158L424 164L431 162L431 166L437 167L439 164L465 153L486 154L495 151L501 146L501 144L505 140L512 137L516 133L510 124L511 119L516 112L521 112L525 116L535 118L541 114L545 107L555 107L564 102L568 93L572 91L578 91L577 90L579 87L581 89L588 85L594 86L594 84L597 87L605 87L607 85L605 78L602 77L598 70L593 68L591 64L583 63L578 70L572 66L565 66L561 69L557 65L556 61L560 59L560 55L563 50L562 49L570 32L582 38L592 30L596 30L600 26L598 22L602 16L602 12L605 9L608 0L616 -9L614 -13L616 -17L613 -19L608 -18L608 -22L610 -22L611 -25L617 -31L625 -32L632 -35L640 -34L644 -36L656 -33L658 -30L662 -28L665 -30L670 -28L673 -25L672 -24L674 -24L676 -21L675 -19L680 -15L679 -13L681 -13L679 -11L682 -10L682 -3L686 5L685 6L687 6L686 9L690 15L691 24L694 25L693 32L697 37L707 36L707 38L710 40L715 39L716 42L717 41L720 44L719 45L724 49L729 49L727 53L728 56L730 56L731 59L729 63L733 69L750 69L751 66L754 65L757 61L760 62L769 57L776 58L777 56L779 56L776 59L774 59L773 63L776 69L768 76L769 79L767 81L767 87L765 89L766 92L761 99L761 103L757 106L757 110L755 113L743 108L736 115L735 114L733 116L736 129L736 139L734 145L726 149L728 153L724 149L724 147L720 145L718 153L716 155L714 153L709 160L699 161L702 166L700 170L692 168L691 169L689 167L688 168L688 164L684 164L682 166L682 170L675 177L667 181L664 183L665 184L663 184L657 189M138 305L135 301L134 296L138 294L140 298L144 296L144 291L142 288L143 287L138 283L137 276L141 272L138 269L134 269L132 267L130 255L123 256L113 252L113 250L108 251L109 250L106 247L107 242L105 239L97 234L94 235L94 233L91 234L89 232L94 231M458 432L456 432L456 428L454 426L458 421L452 421L450 419L447 420L443 418L440 414L437 417L435 417L433 421L429 423L427 421L425 425L422 422L420 422L420 424L418 422L414 426L409 422L405 426L401 427L399 425L398 432L400 434L400 442L397 440L394 441L394 437L392 434L387 438L383 438L381 436L382 435L379 434L379 430L371 430L370 429L372 427L371 426L373 425L372 422L374 418L369 418L367 416L367 410L365 408L367 406L358 405L356 407L352 407L354 405L352 397L355 396L354 393L359 388L359 386L362 387L362 385L365 384L364 381L366 375L365 361L364 362L362 360L362 362L360 360L359 354L357 354L357 352L355 352L354 349L351 350L349 358L346 359L340 354L332 352L327 354L326 357L314 362L310 366L310 368L306 370L295 369L290 371L290 365L289 363L284 361L285 358L282 355L279 356L279 358L275 355L267 353L261 354L260 357L256 360L256 364L254 366L252 363L252 355L246 357L245 356L245 358L233 358L228 355L224 357L223 354L221 356L222 357L220 357L217 352L211 352L210 347L208 349L205 346L203 346L199 339L195 339L196 340L193 341L189 335L184 334L181 330L179 330L176 327L176 325L175 326L169 324L166 329L167 330L165 330L163 326L152 321L149 317L142 317L141 314L138 313L138 305M471 437L465 435L464 436L460 434L460 432L458 432M474 619L473 607M486 501L492 513M497 548L497 554L494 559M557 606L565 597M591 563L596 551M597 504L597 517M607 468L601 480M629 435L621 446M636 413L639 399" id="国界"/><path class="leaflet-interactive" stroke="#201920" stroke-opacity="1" stroke-width="2" stroke-linecap="butt" stroke-linejoin="round" stroke-dasharray="4,4" stroke-dashoffset="4" fill="none" d="M94 231L97 230L97 228L94 225L94 214L91 211L86 210L84 212L82 210" id="争议"/><path class="leaflet-interactive" stroke="gray" stroke-opacity="1" stroke-width="1" stroke-linecap="round" stroke-linejoin="round" stroke-dasharray="8,4,4,4" fill="none" d="M534 429L535 430L534 429M542 425L541 424L537 428L538 430L545 430L544 424L542 425" id="港澳"/><path class="leaflet-interactive" stroke="#4190da" stroke-opacity="1" stroke-width="1" stroke-linecap="round" stroke-linejoin="round" fill="none" d="M540 427L538 427L539 426L535 422L536 425L534 430L533 431L533 429L532 432L530 432L531 433L528 430L527 433L526 432L521 435L518 434L516 435L517 436L514 437L513 436L502 439L501 441L496 443L500 450L497 453L493 453L490 448L490 442L492 438L489 437L485 439L483 438L483 436L478 435L473 438L473 436L471 437M498 442L498 442M498 442L500 444L496 444L498 442M534 429L534 429M540 427L540 427M540 427L540 427M540 427L540 427M606 373L603 374L605 374L607 377L603 379L604 383L603 386L601 386L603 388L605 386L606 387L604 389L603 388L603 390L603 388L599 388L598 389L600 391L598 391L597 394L598 393L596 393L596 391L596 395L594 395L592 397L594 397L591 400L586 399L586 404L578 412L572 412L571 417L570 416L568 420L564 420L561 422L558 421L556 423L552 421L550 425L547 424L547 422L545 426L543 424L541 426L544 426L542 428L540 427M606 373L606 373M628 342L626 342L628 344L627 347L625 347L627 351L625 353L624 352L621 356L619 356L621 358L618 357L615 361L614 366L610 368L610 370L608 370L609 373L605 375L608 372L606 373M624 237L622 239L617 240L618 243L617 242L614 247L611 248L610 245L609 248L611 248L603 255L603 257L600 260L601 261L598 262L598 264L600 266L601 265L602 268L611 273L616 284L618 294L624 298L624 300L629 305L629 308L621 305L619 307L623 310M623 310L630 316L630 320L632 322L629 319L619 322L627 330L630 330L632 332L628 334L630 336L630 341M624 237L624 237M624 237L624 237M634 200L631 203L631 205L630 204L628 206L627 205L627 207L621 209L620 208L620 206L625 205L625 201L627 201L622 200L621 197L624 196L626 192L628 192L630 188L629 187L631 187L633 183L628 178L619 178L619 180L617 180L613 188L609 190L608 189L602 192L602 194L600 194L600 199L595 204L592 203L590 207L585 202L583 204L583 208L582 207L580 211L582 215L584 214L584 217L591 219L594 218L598 223L599 222L599 224L596 225L595 227L596 230L598 230L600 233L605 232L605 229L607 229L610 226L610 224L616 222L622 226L623 225L625 228L631 226L633 228L638 229L635 234L637 233L636 236L635 235L633 237L629 235L625 238L624 237M624 237L624 237M628 342L628 342M628 342L628 342M628 342L628 342M630 341L628 342M630 341L630 341M632 330L632 330M632 330L632 330M632 330L632 330M634 331L632 330M632 330L630 330L629 328L633 328L634 331M634 331L634 331M634 327L635 326L634 327M634 327L633 326L634 327M634 200L634 200M657 189L657 191L654 194L645 194L634 200M635 320L635 320M635 320L636 321L635 320M637 319L637 319M480 436L480 436M483 443L483 443M487 457L487 457M487 604L492 602L490 602L488 605L487 604M489 478L478 474L478 464L486 457L502 454L505 456L506 460L501 464L499 471L489 478M493 598L494 597L493 598M498 447L498 447M498 442L498 442M499 599L499 599M499 595L500 596L499 595M500 443L498 441L500 441L500 443M500 452L500 452M501 597L501 597M501 444L500 445L501 444M507 506L507 506M510 491L511 490L510 491M510 591L511 590L510 591M511 498L511 498M511 582L511 582M511 602L512 601L511 602M511 599L512 598L511 599M511 498L511 498M512 497L512 497M512 598L513 597L512 598M512 500L512 502L512 500M512 589L512 589M512 497L512 497M513 601L513 601M513 497L513 497M513 501L514 500L513 501M513 498L514 497L513 498M514 503L514 503M515 596L517 596L515 596M516 500L517 499L516 500M516 644L516 644M519 587L519 587M519 587L519 587M519 644L519 644M519 495L519 495M519 507L519 507M519 492L519 492M519 587L520 586L519 587M519 643L519 643M520 586L520 586M520 624L520 624M520 493L520 493M520 494L520 494M521 500L521 500M521 435L522 436L521 435M522 623L522 623M522 504L521 503L523 503L522 504M522 498L523 497L522 498M522 579L522 579M522 624L523 623L522 624M522 622L522 622M522 587L524 587L522 587M523 620L523 620M523 630L523 630M523 436L523 436M523 625L524 626L523 625M523 627L524 626L523 627M524 499L524 499M524 630L524 630M524 435L523 436L524 435M524 500L524 500M525 496L525 496M525 436L525 434L525 436M526 586L526 586M526 436L526 436M526 494L526 494M526 598L527 599L526 598M526 578L527 579L526 578M527 579L527 579M527 631L527 631M527 592L527 592M528 462L528 462M528 577L528 577M528 433L528 433M529 432L529 432M529 433L529 433M530 432L530 432M530 616L530 616M530 596L531 595L530 596M531 595L532 594L531 595M534 430L534 430M534 571L534 571M534 609L534 609M535 585L535 585M535 583L535 583M535 432L535 432M536 508L536 508M536 431L536 431M536 432L536 432M536 432L537 431L536 432M536 601L536 601M537 604L537 604M537 426L537 426M537 430L537 430M537 466L538 465L537 466M537 429L539 427L540 428L537 429M537 573L538 572L538 574L537 573M537 510L537 510M538 507L538 507M538 597L538 597M538 601L544 597L545 598L541 602L538 601M538 587L538 587M538 506L539 505L538 506M539 587L539 587M539 587L540 588L539 587M539 510L539 510M539 573L539 573M540 563L540 563M540 596L541 595L540 596M540 503L541 504L540 503M541 429L540 428L541 429M541 432L541 432M541 581L541 581M541 428L542 429L541 428M541 431L541 431M541 588L541 588M542 503L542 503M542 431L542 431M542 510L542 510M542 571L543 570L542 571M542 576L542 576M542 429L542 429M542 509L542 509M542 577L542 577M542 558L543 557L542 558M543 425L543 425M543 561L543 561M543 427L543 427M543 572L543 572M543 565L543 565M543 557L543 557M544 503L544 503M544 575L544 575M544 508L545 509L544 508M544 575L544 575M544 564L546 564L544 564M545 565L545 565M545 575L545 575M545 595L545 595M545 575L545 575M545 574L545 574M546 558L546 558M546 575L546 575M546 587L547 586L546 587M546 508L546 508M546 574L547 575L546 574M546 557L547 556L546 557M546 426L546 426M547 601L547 601M547 594L547 594M547 570L548 569L547 570M547 557L547 557M547 562L548 561L547 562M547 502L548 501L547 502M547 577L547 577M548 595L548 595M548 560L548 560M548 505L548 505M549 564L549 564M549 605L548 606L549 605M549 597L549 597M549 564L550 563L549 564M550 503L549 504L550 503M550 602L551 603L550 602M550 561L550 561M552 592L554 592L552 592M553 591L553 591M554 571L554 571M555 528L555 528M555 581L556 580L555 581M556 575L556 575M556 591L556 591M558 568L558 568M559 567L559 567M559 568L559 568M559 568L559 568M559 567L560 568L559 567M560 577L561 576L561 578L560 577M560 564L560 564M561 444L561 444M561 442L563 443L561 442M562 581L561 582L562 581M562 573L563 572L562 573M564 578L564 578M565 587L566 586L565 587M567 576L567 576M567 583L567 583M567 576L567 576M567 569L569 569L567 569M568 577L568 577M569 568L569 568M570 499L570 499M570 556L571 557L570 556M570 447L570 447M570 585L570 585M571 446L572 449L570 448L572 448L571 446M571 568L571 568M575 413L573 413L575 413M575 567L575 567M576 565L576 565M576 570L576 570M576 566L578 566L576 566M577 561L576 562L577 561M577 573L577 573M578 561L578 561M580 566L580 566M581 562L581 562M581 513L583 514L581 513M582 565L583 564L582 565M585 401L585 401M586 401L585 400L587 400L586 401M587 402L588 401L587 402M589 400L590 401L588 402L589 400M592 205L592 205M594 203L594 203M594 203L595 204L594 203M601 416L601 416M601 392L603 392L601 392M602 414L602 414M602 411L602 411M602 411L602 411M603 386L603 386M603 380L603 380M603 412L602 413L603 412M603 386L603 386M604 386L604 386M604 374L603 373L605 373L604 374M604 390L604 390M604 390L604 390M605 374L605 374M606 387L606 387M607 380L606 379L607 380M607 382L607 382M607 413L608 412L607 413M607 379L607 379M608 375L608 375M609 375L609 375M609 374L609 374M609 371L609 371M609 252L609 252M611 370L611 370M611 427L611 427M611 370L612 369L611 370M612 223L612 223M613 377L613 377M614 221L615 220L614 221M615 432L614 427L610 424L608 418L608 410L619 394L625 390L629 392L629 400L626 405L623 419L618 425L617 433L615 432M615 220L615 220M616 221L616 221M616 218L616 218M616 184L617 183L616 184M616 216L617 215L616 216M618 214L618 214M618 215L618 215M619 243L618 242L619 243M619 356L619 356M619 363L619 363M620 357L619 356L620 357M621 356L621 356M623 306L630 310L625 310L621 307L622 305L623 306M624 296L624 296M624 423L625 424L624 423M625 430L626 431L625 430M626 432L626 432M626 311L625 310L626 311M627 342L627 342M627 347L627 347M628 313L625 311L627 311L628 313M628 312L631 313L628 312M628 329L628 329M628 346L629 345L628 346M628 346L628 346M629 350L629 350M629 329L628 330L629 329M629 313L629 313M629 350L629 350M629 389L629 389M629 396L629 396M629 328L630 329L629 328M629 314L630 315L629 314M630 326L630 326M630 341L630 341M631 333L630 334L631 333M631 331L631 331M631 328L630 327L631 328M631 322L631 322M631 331L631 331M631 330L631 330M631 330L631 330M632 330L632 330M632 327L632 327M632 326L633 327L632 326M632 327L632 327M632 338L632 338M632 334L631 333L632 334M632 334L632 334M633 331L632 330L633 331M633 332L634 333L633 332M633 332L634 331L633 332M633 334L632 333L634 333L633 334M634 331L635 332L634 331M634 203L634 203M635 330L635 330M635 325L634 324L635 325M636 324L636 324M636 202L636 202M637 201L638 202L637 201M637 321L637 321M638 202L638 202M639 328L639 328M639 205L639 205M639 321L639 321M640 321L639 320L640 321M642 197L641 198L642 197M642 199L642 199M643 205L644 204L643 205M645 385L648 386L644 386L645 385M648 384L648 384M648 382L650 382L648 382M648 387L649 386L648 387M648 385L648 385M649 386L649 386M650 194L650 194M658 382L660 382L658 382" id="海洋"/><path class="leaflet-interactive" stroke="#747569" stroke-opacity="0.6" stroke-width="1" stroke-linecap="round" stroke-linejoin="round" fill="none" d="M263 247L250 242L238 244L236 242L234 244L224 246L221 251L216 253L212 251L205 254L202 257L193 258L188 257L186 253L183 254L180 252L179 255L177 255L175 257L176 258L173 259L165 257L155 258L156 259L152 263L153 264L151 264L151 268L149 270L142 270L141 272M354 296L351 295L350 300L349 299L347 303L343 303L343 308L340 307L339 304L337 304L336 309L336 307L334 306L332 308L330 306L329 307L327 303L328 302L325 299L324 300L326 298L322 298L318 294L315 297L306 297L300 293L292 294L283 288L279 289L270 286L269 284L267 284L267 282L262 276L265 272L263 268L264 263L261 264L260 258L264 252L259 249L263 247M293 205L279 210L273 210L267 214L270 217L271 215L272 224L274 224L280 230L281 233L274 237L274 239L278 241L279 246L277 248L267 245L263 247M400 283L398 283L397 280L394 281L393 278L390 277L389 272L390 271L397 273L399 275L402 275L403 272L405 272L405 270L402 269L402 265L407 260L406 256L407 257L408 254L412 254L410 252L412 250L413 251L413 247L415 245L412 244L412 242L409 239L411 237L408 234L410 232L403 226L403 224L400 225L397 222L395 223L392 220L390 220L388 216L384 216L380 212L382 216L381 217L366 204L364 206L361 205L358 209L347 202L345 204L346 211L342 213L342 217L339 216L337 218L331 214L329 216L325 214L318 215L316 209L311 210L309 208L310 207L303 207L302 203L293 205M339 149L334 153L336 160L333 163L329 164L326 167L324 164L320 168L318 168L309 177L309 181L299 182L297 196L293 202L293 205M429 228L427 228L422 223L418 222L420 216L419 215L424 211L425 207L428 206L426 199L419 200L414 204L408 202L404 203L401 204L403 208L400 210L395 209L393 206L394 205L391 206L389 204L389 199L385 200L383 196L376 192L373 192L382 187L383 181L380 177L370 178L370 180L368 179L366 180L366 182L365 179L363 179L364 181L361 182L361 177L353 169L355 166L348 148M370 340L368 334L368 320L364 314L364 312L367 312L363 308L362 303L359 299L354 296M400 283L398 289L395 286L392 287L394 293L392 295L387 296L384 293L382 295L378 289L377 294L368 289L361 275L357 275L356 273L353 274L354 275L350 279L350 282L354 284L351 288L352 289L350 293L354 296M359 354L360 351L362 355L365 352L364 343L366 343L367 346L369 342L368 341L370 340M440 360L439 355L432 358L429 355L431 353L428 351L429 348L424 347L424 351L419 354L419 359L415 364L413 363L412 368L415 375L411 379L409 377L404 381L399 378L398 379L399 378L396 375L397 372L395 372L396 371L391 365L389 359L387 357L384 358L384 360L382 358L380 354L382 352L377 347L377 345L375 345L373 353L370 350L370 340M442 291L440 295L434 295L432 293L431 294L428 291L430 290L430 286L427 283L427 281L419 279L418 280L412 272L409 275L407 275L407 277L404 276L408 283L405 284L404 287L401 288L400 287L402 284L400 283M467 222L464 221L463 218L454 216L459 206L457 200L455 200L452 201L447 208L447 216L445 218L445 223L429 228M429 228L433 228L432 231L439 234L439 240L442 244L440 248L441 250L452 259L454 257L453 252L456 253L459 248L458 245L453 244L454 243L452 240L454 240L456 232L462 233M440 360L439 364L438 363L436 365L432 365L430 363L426 365L426 363L421 367L421 369L423 369L422 373L424 375L430 373L433 376L431 378L432 379L430 381L431 382L429 386L431 388L432 387L431 388L435 392L434 391L432 393L433 394L431 397M431 397L433 403L433 401L437 401L440 406L449 405L450 412L445 413L443 417M488 381L486 385L481 385L483 385L482 388L480 386L478 390L475 387L472 390L472 392L469 393L465 391L462 387L460 387L460 391L451 394L448 399L439 394L434 399L431 397M452 349L448 346L444 350L444 352L452 356L451 359L440 360M462 233L463 236L468 237L472 241L473 240L478 243L478 257L476 259L469 258L467 260L469 262L467 264L455 261L455 265L452 268L456 272L454 272L455 274L453 276L455 281L453 283L453 281L449 281L445 285L448 288L447 291L442 291M477 301L469 301L464 296L462 298L460 296L461 295L457 293L453 295L446 292L444 294L442 291M485 350L483 354L480 353L480 351L477 350L477 347L475 347L474 342L470 343L465 340L464 345L462 346L462 344L460 344L456 350L453 345L454 348L452 349M452 349L450 344L445 343L445 339L441 339L442 338L440 336L445 331L445 329L443 328L446 325L448 325L450 327L455 326L457 330L460 329L465 322L464 320L468 318L469 319L471 317L471 313L473 312L473 310L477 308L477 306L474 305L474 303L476 303L475 301L477 301M462 233L464 224L467 222M506 200L507 197L505 197L501 201L497 199L495 199L496 200L494 202L492 201L493 204L491 204L490 207L483 213L483 220L482 221L480 219L480 225L472 225L469 222L467 222M477 301L480 302L485 307L489 307M489 307L491 307L490 308L495 311L495 319L492 318L487 323L484 323L484 321L482 321L480 323L479 322L475 324L477 326L477 332L475 332L477 334L477 332L479 332L482 338L481 339L482 338L485 341M485 341L485 350M538 342L535 341L536 336L534 333L529 337L527 337L527 333L525 333L525 335L524 334L520 336L516 332L509 331L504 328L499 329L501 333L500 334L492 333L488 335L485 341M488 381L488 379L485 378L487 374L486 373L488 371L487 370L489 369L487 367L483 367L481 369L480 368L488 361L486 359L487 352L485 352L485 350M517 397L513 397L511 399L509 392L505 395L504 394L511 383L507 382L508 379L506 377L500 377L500 379L497 382L494 381L494 379L491 382L492 383L488 381M505 286L502 289L500 287L497 288L489 286L487 288L491 289L491 291L493 291L496 294L494 296L489 295L489 307M491 438L490 438M491 438L493 433L498 432L497 429L502 428L502 424L509 421L509 413L515 407L517 403L515 399L517 397M492 454L494 454M495 454L498 453M498 268L496 267L496 263L501 254L499 250L498 235L503 226L499 220L499 217L504 212L505 205L507 204L508 201L506 200M498 268L498 272L501 275L500 278L503 279L505 286M498 268L511 265L515 261L517 261L517 259L524 260L532 256L535 253L534 252L536 248L536 243M499 453L500 452M555 311L554 312L553 309L549 311L545 309L545 306L542 307L541 305L539 307L539 305L536 304L536 298L532 300L530 298L519 299L516 296L515 297L511 295L505 286M505 287L505 287M541 180L540 183L535 184L533 186L531 186L531 184L528 185L526 188L522 186L517 191L514 197L511 196L506 200M517 397L518 392L524 392L524 394L527 395L528 391L526 391L529 388L533 390L538 389M556 246L552 246L550 248L548 246L536 243M536 243L533 239L537 235L536 232L541 225L536 217L534 217L534 213L537 209L536 206L539 203L541 205L546 197L543 193L541 193L542 192L538 190L545 186L542 184L541 180M563 332L561 334L556 332L554 335L553 334L550 337L549 336L549 338L543 338L538 342M538 389L539 382L540 380L542 380L539 379L540 374L537 373L538 364L535 365L534 362L537 356L539 356L539 354L542 351L540 349L541 346L538 342M538 389L539 388L539 391L545 389L547 391L547 393L543 395L544 396L542 398L544 400L553 397L560 400L559 396L561 395M599 171L589 171L586 165L586 163L588 163L588 159L587 160L584 157L585 154L582 151L578 151L578 153L574 153L572 155L571 161L568 162L566 160L562 164L561 161L557 163L554 166L555 167L549 167L549 159L545 158L545 160L541 164L542 167L538 169L539 172L537 174L541 180M564 268L564 270L567 273L568 272L569 277L564 280L562 276L559 275L557 277L558 282L554 284L554 288L549 289L554 296L558 298L560 296L561 297L561 305L559 307L558 306L555 309L555 311M563 332L563 328L559 321L562 317L555 311M583 216L582 219L580 219L578 222L570 223L567 227L566 226L564 228L565 229L563 229L560 232L561 233L554 240L556 246M564 268L556 268L556 266L554 264L553 265L552 262L548 262L550 258L552 256L553 257L555 253L558 252L563 247L555 251L554 249L556 246M561 395L560 392L562 390L562 386L564 384L563 383L565 383L567 381L566 378L568 376L569 377L568 370L575 366L575 362L573 362L573 360L574 361L579 356L582 359L582 357L588 355L589 352M575 412L572 405L572 401L570 399L571 398L568 399L566 397L567 396L564 397L565 396L561 395M587 338L585 336L581 336L576 331L574 333L575 334L571 336L569 334L572 331L570 329L565 333L563 332M566 267L564 268M599 262L595 262L594 265L592 267L591 266L588 271L586 271L586 267L582 267L582 269L579 270L577 268L575 270L572 263L567 264L566 267M603 315L599 313L594 314L593 313L595 310L591 306L590 307L589 304L589 302L592 301L593 298L591 296L592 295L597 297L598 292L595 290L593 294L589 294L587 292L587 288L584 287L587 280L581 280L581 276L575 275L571 270L569 270L566 267M578 187L576 185L578 181L573 180L570 177L570 175L566 177L567 179L559 183L561 188L555 191L557 193L556 196L560 198L565 197L565 199L567 199L566 198L568 196L571 196M580 211L577 212L570 209L570 205L572 205L571 196M572 195L571 196M572 195L575 196L576 189M576 189L570 191L573 194L572 195M575 412L576 413M578 187L576 189M577 414L578 415M578 187L582 189L582 191L580 191L579 194L581 198L584 197L583 200L585 202M587 338L595 331L595 325L601 325L599 323L603 319L603 315M587 338L585 342L589 346L589 352M613 367L609 363L605 365L602 360L599 363L595 363L595 359L593 357L594 354L592 352L589 352M599 171L601 168L599 166L599 156L602 155L606 157L607 163L609 165L609 163L615 157L619 157L623 153L626 154L631 149L634 150L635 147L637 149L644 148L643 147L645 145L649 144L649 139M606 191L604 189L603 184L598 182L598 180L597 181L594 178L599 171M618 316L615 317L615 319L613 320L611 318L612 317L609 318L605 314L603 315M615 368L616 369M617 214L620 214M630 308L624 307L622 305L620 307L623 309L620 312L621 313L617 315L618 316M622 321L618 316M623 321L625 321M646 81L645 84L644 83L643 85L641 85L639 81L640 80L637 79L635 75L655 55L657 57L656 58L658 62L659 61L659 53L662 44L667 43L667 27L669 27L668 26L670 22L674 19L673 16L676 13L676 11L670 2L665 -1L665 1L661 5L658 4L658 6L652 6L650 4L645 7L642 5L641 6L637 -8L639 -12L637 -12L632 -17L629 -12L621 -19L626 -23L628 -27L624 -32M625 321L626 321M628 320L629 320M630 319L632 319M634 318L636 318M638 318L639 317M736 137L731 138L728 135L726 135L725 130L721 132L720 129L714 133L713 132L712 135L708 137L704 127L704 123L702 121L701 124L699 124L700 126L696 128L692 122L693 121L691 119L687 119L688 114L686 111L682 109L676 111L672 108L671 105L669 107L665 107L665 105L659 107L653 101L654 100L652 98L652 92L646 94L643 93M643 93L641 88L649 85L649 83L648 82L648 84L646 81M643 93L642 96L639 96L639 102L637 102L634 98L633 101L629 97L627 97L628 98L626 101L630 103L633 110L631 112L631 120L634 126L636 126L642 121L645 125L645 129L648 135L645 136L645 138L649 139M646 81L646 81M646 81L646 81M646 81L646 81M649 139L650 138L653 141L654 140L658 147L662 143L663 144L662 145L667 155L666 156L670 158L668 160L668 166L670 166L670 170L673 173L671 177L672 178M447 257L448 256L447 257M488 372L488 372M527 333L527 333" id="省界"/><path class="leaflet-interactive" stroke="#8B908F" stroke-opacity="0.5" stroke-width="1" stroke-linecap="butt" stroke-linejoin="bevel" fill="#eee" fill-opacity="0.5" fill-rule="evenodd" d="M659 187L663 183L664 184L673 177L674 178L686 163L689 167L688 168L689 167L691 169L692 168L699 170L701 169L702 166L699 161L709 160L714 154L716 155L721 145L723 145L722 146L724 150L726 152L727 151L728 154L728 150L726 150L727 148L733 147L736 140L736 129L734 118L732 116L734 114L738 114L740 110L742 110L742 108L756 113L757 106L761 102L764 96L763 95L766 92L765 89L767 86L769 78L768 77L775 69L773 64L774 59L779 57L769 57L761 62L757 62L753 65L752 64L750 69L732 69L729 63L730 55L728 56L727 53L729 49L724 49L718 43L718 41L716 41L716 39L711 40L705 36L697 37L693 32L694 25L691 23L690 15L686 10L687 6L685 6L686 5L681 -6L681 -12L679 -13L680 -14L677 -18L675 -18L677 -21L675 -21L673 -24L672 -23L673 -25L666 -30L663 -28L658 -30L656 -33L654 -32L651 -35L644 -36L639 -34L632 -35L622 -31L618 -31L611 -25L608 -19L613 -19L615 -17L614 -14L616 -12L616 -7L608 0L605 9L602 12L602 16L598 22L600 26L596 30L592 30L582 38L570 32L562 49L563 50L560 54L560 59L556 61L557 65L561 69L565 66L571 66L578 70L583 63L590 64L605 78L607 84L604 87L598 87L595 84L592 86L589 85L582 89L579 87L577 91L568 92L565 100L562 103L555 107L546 107L543 112L535 118L526 116L521 112L516 112L510 122L511 127L515 130L516 134L505 140L498 149L491 152L485 154L465 153L445 161L439 164L437 167L431 166L431 162L424 164L411 158L404 157L398 152L390 150L374 152L355 150L349 148L339 149L333 141L329 129L327 129L328 126L322 125L306 114L283 112L277 110L275 108L274 102L278 97L276 92L278 90L278 86L272 76L271 71L267 68L267 66L263 67L260 63L255 64L254 62L252 62L250 58L243 53L244 52L241 49L241 43L237 45L232 44L229 46L229 52L225 56L224 55L217 58L215 62L217 77L214 80L212 80L209 83L207 81L197 81L188 77L187 78L178 102L178 105L182 108L181 111L178 109L175 110L171 108L167 110L166 109L164 111L158 111L151 115L157 119L157 129L161 137L161 143L157 145L159 147L157 147L154 151L156 157L154 157L154 159L148 163L137 167L137 169L136 168L132 170L127 174L128 175L117 175L115 177L114 182L111 185L110 184L104 186L102 182L103 181L98 184L94 183L94 186L84 190L82 193L83 197L78 200L82 205L81 210L83 212L88 210L94 214L94 225L97 228L97 230L89 232L91 234L94 233L94 235L100 235L101 238L105 238L107 241L106 246L109 250L108 251L113 250L113 252L117 254L123 256L130 256L132 266L141 271L137 276L137 281L143 288L144 296L141 299L138 296L138 294L135 295L134 301L138 305L138 312L143 317L149 317L154 323L155 322L164 326L165 330L167 330L166 329L169 324L175 326L176 325L176 327L179 330L184 334L189 335L191 339L194 341L198 339L201 345L203 345L207 349L210 347L211 352L217 352L221 357L222 354L225 357L229 355L234 358L245 358L245 356L246 357L251 354L253 356L252 363L255 366L257 364L256 361L258 358L263 353L267 353L273 356L274 355L278 358L281 355L283 356L285 359L284 362L287 362L290 365L290 371L296 369L307 370L315 361L326 357L327 354L332 352L340 354L342 357L345 357L347 359L350 356L350 352L352 352L351 351L353 349L359 355L360 360L362 362L362 360L365 361L366 375L364 381L365 384L363 383L362 386L360 386L359 389L355 391L355 396L352 397L352 401L354 403L352 407L353 408L359 405L367 405L365 407L368 415L367 416L369 418L372 417L375 420L373 420L374 421L370 429L377 430L380 432L379 433L380 435L382 435L382 438L388 437L392 434L393 439L399 442L401 440L399 439L400 433L397 428L399 427L399 425L405 426L408 422L414 426L418 422L420 424L423 423L425 425L427 421L430 423L435 420L435 417L442 415L447 420L450 419L452 421L458 421L454 426L456 428L456 432L457 431L464 436L465 435L475 437L478 435L483 436L484 439L491 438L492 439L490 442L490 446L494 453L498 453L500 451L499 447L498 448L496 444L498 441L505 438L517 436L517 434L520 435L524 434L525 432L528 433L529 430L530 433L534 430L534 426L536 423L535 422L538 426L542 424L544 424L544 426L547 422L549 425L552 421L556 423L558 421L560 422L567 420L568 417L571 416L572 412L577 412L586 404L586 400L591 400L594 397L592 396L596 396L595 391L597 391L597 393L597 391L600 392L600 390L598 389L599 388L603 388L603 390L606 387L605 386L603 388L601 386L604 381L603 380L606 377L605 374L603 374L604 372L605 373L608 371L607 374L605 375L609 372L608 371L612 367L614 367L615 360L621 357L619 357L620 354L620 356L625 352L626 353L625 348L628 345L626 342L630 342L629 334L632 331L626 329L619 322L626 319L629 319L631 322L630 317L623 310L624 309L630 311L629 305L624 301L624 298L618 294L618 290L611 272L605 270L601 267L602 266L600 266L602 266L601 265L600 266L598 264L603 257L603 254L605 254L611 248L609 248L610 245L611 248L615 247L615 243L617 243L619 241L618 240L624 237L625 238L629 235L632 235L631 236L634 237L637 234L635 234L638 229L633 228L631 226L629 228L626 228L621 226L621 224L617 222L610 224L610 226L607 229L605 229L606 230L604 232L600 232L598 230L597 231L595 227L597 224L599 224L595 218L590 219L583 216L584 215L582 215L580 212L582 209L581 208L583 208L583 204L585 202L590 207L592 203L595 204L600 199L599 198L601 193L612 188L617 182L617 180L619 180L618 179L622 177L628 177L630 181L632 181L633 183L631 185L632 186L629 187L629 190L621 198L624 201L627 200L625 202L626 203L620 207L620 209L625 208L626 205L629 206L628 205L630 205L632 203L631 202L643 195L644 196L649 193L655 194L659 187zM539 425L537 429L540 427L542 429L542 427L544 427L541 426L543 425L540 425zM637 201L637 201zM634 203L635 202L634 203zM638 202L638 202zM638 205L639 205zM495 455L490 455L484 458L478 464L478 474L489 478L495 475L497 472L499 472L501 464L505 460L505 455L495 455zM612 426L615 428L615 432L617 433L618 425L624 417L626 406L629 401L628 397L630 394L625 390L618 395L610 409L608 410L608 418L611 425zM573 414L575 414L574 413zM632 330L634 330L630 327L629 328L631 330zM589 400L588 401L590 400zM633 327L632 328zM633 334L633 334zM635 320L636 321L635 320zM659 383L659 382zM632 326L633 327L632 325zM526 434L525 437L526 435zM634 327L634 326zM522 436L524 436L522 436zM630 341L631 340zM519 644L519 643zM647 385L647 385zM634 331L635 332L634 331zM603 412L603 413zM649 383L649 382zM601 392L602 391L601 392zM635 325L634 324zM541 429L540 428L541 429zM642 197L642 198zM628 346L629 345zM543 427L543 427zM603 386L603 386zM616 221L616 221zM633 332L634 332zM602 411L601 412L602 411zM607 379L607 379zM542 431L542 431zM621 361L621 361zM628 342L628 342zM498 441L500 443L501 441L498 441zM521 435L522 435zM615 220L616 220zM499 443L498 442L496 444L499 445L500 443zM636 202L636 202zM587 402L587 401zM629 350L629 349zM632 334L631 333L632 334zM534 430L534 430zM606 373L607 373zM628 312L625 311L628 313zM635 331L635 331zM587 400L585 401L587 401zM637 321L636 321zM616 184L617 183L616 184zM603 380L604 379L603 380zM607 380L606 379zM629 350L629 350zM602 414L602 415zM642 199L642 199zM536 432L536 431zM628 330L629 329L628 330zM531 595L532 594L531 595zM631 328L630 328zM635 330L634 330zM602 411L603 411zM536 432L536 432zM619 363L619 363zM630 341L630 340zM529 433L529 433zM608 375L608 375zM631 333L630 334zM603 386L604 386zM630 326L629 326zM629 328L630 329zM516 644L517 644zM628 312L631 313L628 312zM510 491L511 490L510 491zM537 426L537 426zM632 330L632 330zM541 431L541 431zM581 513L583 514L581 513zM631 386L631 386zM609 371L609 371zM619 243L618 243zM541 432L540 431zM605 374L605 373zM639 328L639 328zM624 423L625 423zM633 334L633 333zM625 430L624 431L626 431L625 430zM643 205L644 204L643 205zM519 643L519 643zM571 446L570 447L572 447L572 449L571 446zM620 359L620 359zM513 501L514 501zM528 433L528 433zM631 388L631 388zM635 330L635 330zM512 501L511 502L513 500zM538 601L541 602L545 598L544 597L538 601zM633 332L634 331zM633 326L634 326zM539 587L539 587zM609 374L609 374zM639 321L639 320zM539 587L539 587zM620 357L619 357zM483 443L483 443zM498 447L498 447zM516 500L516 499zM513 498L514 498zM616 218L616 217zM519 587L518 587zM537 604L537 604zM609 252L609 251zM618 215L618 215zM541 588L542 588zM519 492L519 492zM621 356L621 356zM650 194L650 194zM601 416L601 416zM547 570L547 569zM560 577L560 576zM546 574L547 574zM536 601L537 601zM487 604L493 602L488 603zM614 221L614 220zM611 370L611 369zM640 321L639 320zM565 587L565 586zM522 504L523 503L521 503zM501 444L501 445zM522 587L523 587zM616 216L617 215zM544 564L546 564L545 563zM624 226L624 226zM604 373L603 373zM632 330L633 330zM521 500L522 500zM624 226L624 226zM624 226L624 226zM635 331L635 331zM626 311L625 310zM543 427L543 427zM500 452L500 451zM567 569L568 569zM511 498L511 498zM629 314L630 314zM520 493L520 492zM630 330L631 330zM556 575L556 574zM619 356L620 356zM594 203L594 204zM547 594L548 595L547 594zM545 595L546 595zM538 597L538 596zM552 592L553 592zM555 581L556 580zM611 427L612 427zM567 583L568 583zM535 585L535 585zM547 562L548 561L547 562zM632 330L632 330zM546 557L546 556zM549 564L550 563zM511 498L512 498zM538 587L538 587zM493 598L494 597L493 598zM570 556L571 557L570 556zM513 497L513 497zM629 314L629 314zM522 498L523 497L522 498zM514 503L514 503zM537 573L538 574L537 572zM548 595L548 595zM568 577L569 577zM554 571L554 571zM571 568L572 568zM547 502L547 501zM562 581L562 582zM535 583L536 583zM547 601L547 601zM582 565L582 564zM545 565L545 564zM547 557L547 556zM542 571L542 570zM569 568L570 568zM499 595L500 596L499 595zM510 591L511 590zM553 591L554 591zM530 596L531 595zM543 427L543 427zM540 563L540 563zM576 570L576 570zM561 442L562 443L561 442zM541 503L542 503zM500 597L501 596zM556 591L556 591zM511 602L511 601zM512 589L513 589zM499 599L499 599zM520 586L521 586zM515 596L517 596L516 595zM567 576L567 576zM561 444L561 444zM550 561L551 561zM544 508L545 508zM562 573L563 572zM540 503L541 503zM576 566L578 566L577 565zM549 605L549 606zM519 587L519 587zM513 601L513 600zM526 586L526 586zM522 622L523 622zM546 587L547 586L546 587zM549 597L549 597zM527 592L527 592zM535 609L535 609zM577 573L577 572zM570 499L570 499zM560 422L560 422zM543 428L543 428zM528 462L527 462zM544 503L544 503zM537 466L537 465zM524 630L524 630zM512 598L512 597zM519 587L520 586zM526 598L527 598zM523 625L523 625zM522 624L522 623zM534 571L535 571zM555 528L555 527zM537 510L538 510zM543 427L543 427zM560 422L560 422zM527 631L527 631zM523 630L523 630zM520 624L521 624zM519 495L519 494zM519 507L519 507zM543 427L543 427zM522 623L522 622zM523 627L523 626zM530 616L530 616zM564 578L564 578zM550 602L551 602zM511 599L512 598zM538 505L539 505zM550 503L549 504zM543 428L543 428zM570 585L570 585zM524 499L524 498zM559 568L560 568zM507 457L507 457zM576 565L576 565zM559 567L560 568zM524 500L524 499zM534 429L534 429zM522 579L523 579zM546 508L546 508zM577 561L577 562zM581 562L581 562zM541 581L541 581zM547 577L547 577zM523 620L523 620zM636 413L639 399L636 413zM621 446L629 435L621 446zM601 480L608 467L601 480zM597 515L597 503L597 515zM592 560L591 563L596 551L594 555zM557 606L565 597L557 606zM526 645L526 645zM474 619L474 607L474 619zM495 558L494 559L497 555L497 549L496 556zM492 513L486 501L491 510z" data-spm-anchor-id="a2crr.b71357980.area-selector.i1.578a26c0a70U3x" id="中华人民共和国"/></g></svg>