<?xml version="1.0" standalone="no"?><!DOCTYPE svg PUBLIC "-//W3C//DTD SVG 1.1//EN" "http://www.w3.org/Graphics/SVG/1.1/DTD/svg11.dtd"><svg t="1731050947131" class="icon" viewBox="0 0 1024 1024" version="1.1" xmlns="http://www.w3.org/2000/svg" p-id="1280" xmlns:xlink="http://www.w3.org/1999/xlink" width="200" height="200"><path d="M513.3312 512m-436.2752 0a436.2752 436.2752 0 1 0 872.5504 0 436.2752 436.2752 0 1 0-872.5504 0Z" fill="#F9C4C0" p-id="1281"></path><path d="M559.872 187.1872l66.56 134.5536a51.8144 51.8144 0 0 0 39.168 28.3648l148.48 21.5552a51.8656 51.8656 0 0 1 28.7232 88.4736l-107.52 104.704a52.0704 52.0704 0 0 0-14.8992 46.08l25.6 147.8656a51.8656 51.8656 0 0 1-75.264 54.6816l-133.12-69.9392a51.9168 51.9168 0 0 0-48.2816 0l-132.864 69.7856a51.9168 51.9168 0 0 1-75.3152-54.6816l25.6-147.8656a51.968 51.968 0 0 0-14.9504-46.08L184.32 460.1344a51.8656 51.8656 0 0 1 28.7744-88.4736l148.48-21.5552a51.8144 51.8144 0 0 0 39.0656-28.3648l66.56-134.5536a51.8656 51.8656 0 0 1 92.672 0z" fill="#F0606D" p-id="1282"></path><path d="M846.7456 455.68a50.8928 50.8928 0 0 0-32.9728-18.8928l-148.48-21.5552a51.9168 51.9168 0 0 1-39.0656-28.416l-66.56-134.5024a51.8656 51.8656 0 0 0-93.0304 0l-66.56 134.5024a51.9168 51.9168 0 0 1-39.0656 28.416l-148.48 21.5552A50.8928 50.8928 0 0 0 179.968 455.68a60.1088 60.1088 0 0 0 4.1984 4.7104l107.52 104.704a51.968 51.968 0 0 1 14.9504 46.08l-5.4272 31.744a52.1216 52.1216 0 0 1 5.3248 32.9216L286.72 792.0128a51.9168 51.9168 0 0 0 69.888 21.2992l132.7616-69.7856a51.9168 51.9168 0 0 1 48.2816 0l132.7616 69.7856a51.9168 51.9168 0 0 0 69.888-21.2992L720.1792 675.84a52.1216 52.1216 0 0 1 5.4272-33.1264l-5.4272-31.744a52.0704 52.0704 0 0 1 14.8992-46.08l107.52-104.704a51.9168 51.9168 0 0 0 4.1472-4.5056z" fill="#EB545E" p-id="1283"></path><path d="M734.6176 695.0912l-14.4384-84.3264a52.0704 52.0704 0 0 1 14.8992-46.08l66.9184-65.1776L665.6 479.7952a51.8144 51.8144 0 0 1-39.0656-28.3648l-66.56-134.5024a51.8656 51.8656 0 0 0-93.0304 0l-66.56 134.5024a51.8144 51.8144 0 0 1-39.0656 28.3648l-136.6016 19.8656L291.84 564.8384a51.968 51.968 0 0 1 14.9504 46.08L291.84 695.0912a51.968 51.968 0 0 1 14.4896 45.4144L295.6288 803.84a51.456 51.456 0 0 0 60.8256 9.2672l132.7616-69.7856a51.9168 51.9168 0 0 1 48.2816 0l132.7616 69.7856a51.456 51.456 0 0 0 60.8256-9.2672l-10.9056-63.5392a51.8144 51.8144 0 0 1 14.4384-45.2096z" fill="#E6494E" p-id="1284"></path><path d="M735.0784 564.8384l9.0112-8.704-78.4896-11.4688a51.8144 51.8144 0 0 1-39.0656-28.3648l-66.56-134.5536a51.8656 51.8656 0 0 0-93.0304 0l-66.56 134.5536a51.8144 51.8144 0 0 1-39.0656 28.3648l-78.6944 11.4688 8.96 8.704a51.968 51.968 0 0 1 14.9504 46.08l-24.0128 139.6736 9.3184 8.8576a51.8144 51.8144 0 0 1 14.9504 46.08l-1.1264 6.4512a51.2 51.2 0 0 0 51.2 1.536l132.7616-69.7856a51.9168 51.9168 0 0 1 48.2816 0l132.7616 69.7856a51.2 51.2 0 0 0 51.2-1.536l-1.0752-6.4512a51.968 51.968 0 0 1 14.8992-46.08l9.0624-8.8576-23.9616-139.8272a52.0704 52.0704 0 0 1 14.2848-45.9264z" fill="#E44447" p-id="1285"></path><path d="M356.4544 813.312l132.7616-69.7856a51.9168 51.9168 0 0 1 48.2816 0l132.7616 69.7856a51.8656 51.8656 0 0 0 75.264-54.6816l-24.1664-140.9536-55.7568-8.1408a51.7632 51.7632 0 0 1-39.0656-28.416l-66.56-134.5024a51.8656 51.8656 0 0 0-93.0304 0l-66.56 134.5024a51.7632 51.7632 0 0 1-39.0656 28.416l-56.0128 8.1408-24.1664 140.9536a51.8656 51.8656 0 0 0 75.3152 54.6816z" fill="#E93838" p-id="1286"></path><path d="M513.3312 629.76a128 128 0 0 1-120.7296-85.6576 30.72 30.72 0 1 1 57.9584-20.48 66.56 66.56 0 0 0 124.928 1.6896 30.72 30.72 0 0 1 57.4464 21.8624A128.6144 128.6144 0 0 1 513.3312 629.76z" fill="#FFFFFF" p-id="1287"></path></svg>