<?xml version="1.0" standalone="no"?>
<svg xmlns="http://www.w3.org/2000/svg" width="32" height="32"><rect width="32" height="32" opacity="0"></rect><g><path d="M12.13 8.06Q12.54 8.06 12.83 7.78Q13.12 7.49 13.12 7.07Q13.12 5.86 14 4.96Q14.88 4.06 16.13 4.06Q17.38 4.06 18.26 4.96Q19.14 5.86 19.14 7.07Q19.14 7.49 19.42 7.78Q19.71 8.06 20.13 8.06L27.39 8.06Q27.81 8.06 28.1 7.78Q28.38 7.49 28.38 7.07Q28.38 6.66 28.1 6.37Q27.81 6.08 27.39 6.08L21.02 6.08Q20.67 4.35 19.3 3.22Q17.92 2.08 16.1 2.08Q14.3 2.08 12.93 3.22Q11.55 4.35 11.2 6.08L4.58 6.08Q4.16 6.08 3.87 6.37Q3.58 6.66 3.58 7.07Q3.58 7.49 3.87 7.78Q4.16 8.06 4.58 8.06L12.13 8.06ZM18.34 23.84Q18.75 23.84 19.04 23.57Q19.33 23.3 19.36 22.88L19.68 13.54Q19.71 13.12 19.41 12.82Q19.1 12.51 18.69 12.48Q18.27 12.48 17.98 12.75Q17.7 13.02 17.7 13.44L17.34 22.78Q17.31 23.2 17.62 23.5Q17.92 23.81 18.34 23.84ZM13.7 23.84Q14.11 23.81 14.42 23.5Q14.72 23.2 14.69 22.78L14.3 13.44Q14.3 13.02 14.02 12.75Q13.73 12.48 13.28 12.48Q12.86 12.51 12.58 12.82Q12.29 13.12 12.32 13.54L12.67 22.88Q12.7 23.26 12.99 23.55Q13.28 23.84 13.7 23.84ZM22.94 26.4Q22.88 27.04 22.4 27.47Q21.92 27.9 21.28 27.9L10.72 27.9Q10.05 27.9 9.58 27.47Q9.12 27.04 9.06 26.4L7.74 9.63L5.76 9.63L7.07 26.56Q7.2 28 8.24 28.96Q9.28 29.92 10.72 29.92L21.28 29.92Q22.72 29.92 23.74 28.96Q24.77 28 24.93 26.56L26.21 9.63L24.22 9.63L22.94 26.4Z" fill="rgba(0,0,0,0.9019607843137255)"></path></g></svg>