<?xml version="1.0" standalone="no"?><!DOCTYPE svg PUBLIC "-//W3C//DTD SVG 1.1//EN" "http://www.w3.org/Graphics/SVG/1.1/DTD/svg11.dtd"><svg t="1731229213170" class="icon" viewBox="0 0 1024 1024" version="1.1" xmlns="http://www.w3.org/2000/svg" p-id="27491" xmlns:xlink="http://www.w3.org/1999/xlink" width="200" height="200"><path d="M509.1328 513.1264m-450.816 0a450.816 450.816 0 1 0 901.632 0 450.816 450.816 0 1 0-901.632 0Z" fill="#8486F8" p-id="27492"></path><path d="M262.9632 448.3584h56.576c14.2336 0 25.7024-11.52 25.7024-25.7024 0-14.2336-11.52-25.7024-25.7024-25.7024H262.9632c-14.2336 0-25.7024 11.52-25.7024 25.7024 0 14.1824 11.52 25.7024 25.7024 25.7024z" fill="#FFFFFF" p-id="27493"></path><path d="M699.9552 228.864H346.9312c-35.3792 0-64.0512 28.672-64.0512 64.0512v73.472h36.6592c31.0784 0 56.2688 25.1904 56.2688 56.2688s-25.1904 56.2688-56.2688 56.2688h-36.6592v92.7232h36.6592c31.0784 0 56.2688 25.1904 56.2688 56.2688s-25.1904 56.2688-56.2688 56.2688h-36.6592v58.6752c0 35.3792 28.672 64.0512 64.0512 64.0512h353.024c35.3792 0 64.0512-28.672 64.0512-64.0512V292.9152c0-35.3792-28.672-64.0512-64.0512-64.0512z m-75.52 327.168c-22.7328 25.088-50.0736 44.5952-77.2608 64.3072-9.3184 6.7584-20.1728 6.2464-30.208-1.2288-15.9232-11.8784-31.744-23.9104-47.2576-36.4032-15.0528-12.0832-28.672-25.6512-39.9872-41.472-22.1696-31.0784-21.5552-74.5472 2.1504-103.5776 13.5168-16.5376 31.5392-23.5008 52.7872-22.6304 17.7664 0.7168 33.2288 6.656 45.6704 19.6096 0.5632 0.5632 1.1264 1.1264 1.7408 1.6384 0.2048 0.2048 0.5632 0.256 1.3824 0.6144 9.6256-9.8304 20.3776-17.3568 34.048-20.0704 43.5712-8.8064 74.1888 15.7184 82.7904 54.8352 7.3216 32.9216-3.9936 60.2624-25.856 84.3776z" fill="#FFFFFF" p-id="27494"></path><path d="M345.2928 627.8656c0-14.2336-11.52-25.7024-25.7024-25.7024H262.9632c-14.2336 0-25.7024 11.52-25.7024 25.7024s11.52 25.7024 25.7024 25.7024h56.576c14.2336 0.0512 25.7536-11.4688 25.7536-25.7024z" fill="#FFFFFF" p-id="27495"></path></svg>