<?xml version="1.0" standalone="no"?><!DOCTYPE svg PUBLIC "-//W3C//DTD SVG 1.1//EN" "http://www.w3.org/Graphics/SVG/1.1/DTD/svg11.dtd"><svg t="1731050879801" class="icon" viewBox="0 0 1024 1024" version="1.1" xmlns="http://www.w3.org/2000/svg" p-id="1121" xmlns:xlink="http://www.w3.org/1999/xlink" width="200" height="200"><path d="M517.12 512.5632m-436.2752 0a436.2752 436.2752 0 1 0 872.5504 0 436.2752 436.2752 0 1 0-872.5504 0Z" fill="#F9C4C0" p-id="1122"></path><path d="M786.2272 323.4816a186.6752 186.6752 0 0 0-264.0896 0l-5.12 5.12-5.12-5.12a186.6752 186.6752 0 0 0-264.0896 0 186.7776 186.7776 0 0 0 0 264.0896l202.752 202.752a93.7984 93.7984 0 0 0 132.7104 0l197.7344-197.7344 5.12-5.12a186.7776 186.7776 0 0 0 0.1024-263.9872z" fill="#F0606D" p-id="1123"></path><path d="M519.5264 410.8288l-2.4064 2.4064-2.4064-2.4064c-72.3968-72.3968-190.464-76.1344-264.192-5.12a186.0096 186.0096 0 0 0-52.3264 92.16 186.0096 186.0096 0 0 0 49.8176 89.6512L450.56 790.3232a93.7984 93.7984 0 0 0 132.7104 0l197.7344-197.7344 5.12-5.12a186.0096 186.0096 0 0 0 49.8176-89.6512 186.0096 186.0096 0 0 0-52.3264-92.16c-73.6256-70.9632-191.6928-67.2256-264.0896 5.1712z" fill="#EB545E" p-id="1124"></path><path d="M519.5264 495.5648l-2.4064 2.4064-2.4064-2.4064c-72.96-72.96-194.56-75.3152-267.264-2.048a187.2384 187.2384 0 0 0-33.792 46.7456 187.0336 187.0336 0 0 0 34.3552 47.3088L450.56 790.3232a93.7984 93.7984 0 0 0 132.7104 0l197.7344-197.7344 5.12-5.12a185.8048 185.8048 0 0 0 34.3552-47.3088 185.4976 185.4976 0 0 0-33.8432-46.7968c-72.5504-73.0624-194.2016-70.7584-267.1104 2.2016z" fill="#E6494E" p-id="1125"></path><path d="M522.24 577.6896l-5.12 5.12-5.12-5.12a186.7776 186.7776 0 0 0-264.0896 0c-1.5872 1.6384-3.1232 3.2768-4.6592 5.12 1.536 1.6384 3.072 3.328 4.6592 5.12L450.56 790.3232a93.7984 93.7984 0 0 0 132.7104 0l197.7344-197.7344 5.12-5.12c1.5872-1.5872 3.1232-3.2768 4.6592-5.12-1.536-1.6896-3.072-3.328-4.6592-5.12a186.7776 186.7776 0 0 0-263.8848 0.4608z" fill="#E44447" p-id="1126"></path><path d="M522.24 662.4768l-5.12 5.12-5.12-5.12a186.7264 186.7264 0 0 0-221.2352-32.0512L450.56 790.3232a93.7984 93.7984 0 0 0 132.7104 0l159.8976-159.8976a186.7264 186.7264 0 0 0-220.928 32.0512z" fill="#E93838" p-id="1127"></path><path d="M685.1584 576.5632a30.72 30.72 0 0 1-23.4496-50.5344l28.3648-33.7408c27.1872-32.8704 0.3584-68.5056-0.8192-69.9904a30.72 30.72 0 0 1 48.6912-37.5296c20.1216 26.1632 46.08 90.4704-0.6656 146.8416l-28.5696 33.9968a30.72 30.72 0 0 1-23.552 10.9568z" fill="#FFFFFF" p-id="1128"></path></svg>