<?xml version="1.0" standalone="no"?><!DOCTYPE svg PUBLIC "-//W3C//DTD SVG 1.1//EN" "http://www.w3.org/Graphics/SVG/1.1/DTD/svg11.dtd"><svg t="1731053033863" class="icon" viewBox="0 0 1024 1024" version="1.1" xmlns="http://www.w3.org/2000/svg" p-id="8139" xmlns:xlink="http://www.w3.org/1999/xlink" width="200" height="200"><path d="M908.398213 771.204569c-121.552611-200.196301-376.524089-265.579706-574.204336-147.699173-120.702593 72.047548-194.586181 195.844208-210.804529 328.787063A40.800877 40.800877 0 0 0 162.830195 998.635455h768.688515a40.800877 40.800877 0 0 0 39.57685-46.308995 453.297739 453.297739 0 0 0-62.697347-181.121891z" fill="#8651ED" p-id="8140"></path><path d="M920.978484 780.58877c-114.242454-200.196301-353.811601-265.647707-539.557592-147.665172-113.392436 72.047548-182.855929 195.810207-198.190258 328.753063-2.822061 24.65053 14.654315 46.478999 37.162798 46.478999h722.311518c22.440482 0 39.950858-21.692466 37.162799-46.308995a472.984162 472.984162 0 0 0-58.889265-181.257895z" fill="#9146FF" p-id="8141"></path><path d="M890.445828 780.58877c-102.716207-200.196301-318.144835-265.647707-485.156424-147.665172-102.002191 72.047548-164.427533 195.810207-178.197828 328.753063-2.550055 24.65053 13.158283 46.478999 33.388717 46.478999h649.413953c20.196434 0 35.938772-21.692466 33.422718-46.308995A511.200983 511.200983 0 0 0 890.445828 780.58877z" fill="#8651ED" p-id="8142"></path><path d="M926.486602 1023.965999H97.480791a71.639539 71.639539 0 0 1-37.842813-10.200219 68.88548 68.88548 0 0 1-32.266693-67.321446 488.794501 488.794501 0 0 1 897.755288-199.414285 484.340406 484.340406 0 0 1 71.401534 199.686291 68.681476 68.681476 0 0 1-32.368696 67.117442 71.741541 71.741541 0 0 1-37.672809 10.132217z m-417.256965-451.869708A433.849321 433.849321 0 0 0 78.508384 952.972474a17.000365 17.000365 0 0 0 4.148089 13.600292 17.272371 17.272371 0 0 0 13.090281 5.916127h832.473885a17.23837 17.23837 0 0 0 13.090281-5.916127 17.000365 17.000365 0 0 0 4.18209-13.396288 433.645317 433.645317 0 0 0-64.125377-178.571836c-82.043763-130.086795-225.934854-202.508351-372.137996-202.508351z" fill="#2E3138" p-id="8143"></path><path d="M617.929973 589.402663l-17.374373-46.717004a0.816018 0.816018 0 0 1 0.510011-1.088023 253.135438 253.135438 0 1 0-192.750142-6.086131 0.884019 0.884019 0 0 1 0.44201 1.156025l-20.400438 45.492977a0.884019 0.884019 0 0 1-1.156025 0.44201 304.612544 304.612544 0 1 1 231.918982 7.310157 0.884019 0.884019 0 0 1-1.190025-0.510011z" fill="#2E3138" p-id="8144"></path><path d="M282.20676 812.005445m20.910449 0l424.125112 0q20.910449 0 20.91045 20.91045l0 25.704552q0 20.910449-20.91045 20.910449l-424.125112 0q-20.910449 0-20.910449-20.910449l0-25.704552q0-20.910449 20.910449-20.91045Z" fill="#2E3138" p-id="8145"></path></svg>