<?xml version="1.0" standalone="no"?><!DOCTYPE svg PUBLIC "-//W3C//DTD SVG 1.1//EN" "http://www.w3.org/Graphics/SVG/1.1/DTD/svg11.dtd"><svg t="1732939643222" class="icon" viewBox="0 0 1024 1024" version="1.1" xmlns="http://www.w3.org/2000/svg" p-id="11762" xmlns:xlink="http://www.w3.org/1999/xlink" width="200" height="200"><path d="M456.544908 912.067052H0.2304c0-100.693674 48.431052-176.252245 107.1818-195.461185 58.750748-19.20894 183.40451-61.305129 183.40451-61.305129v-59.159449c-5.313111-2.758731-6.539214-5.262024-4.597885-7.407703l-1.634803-1.021752c-49.248453-24.522051-42.351626-72.391139-73.87268-102.430653-31.521054-30.039513-73.515067-47.000599-80.054281-108.45899-6.539214-61.407304 13.436041-69.223708 28.864498-69.223708V203.124326C166.776 118.676512 260.061971 62.99102 339.962988 53.79525c80.514069-15.326282 250.124925 35.556975 264.582718 136.148474v117.654759s37.396129 7.765316 30.856915 69.223708a105.342646 105.342646 0 0 1-16.705647 48.328877c-118.880862 43.475554-204.75913 168.384754-204.75913 315.619237 0 62.684494 15.58172 121.28198 42.607064 171.296747z m0.766314-170.223907A282.25903 282.25903 0 0 1 739.314814 459.788465a282.25903 282.25903 0 0 1 282.207943 282.412293c-0.153263 155.255238-126.595091 281.799242-281.799242 281.799242a282.361205 282.361205 0 0 1-282.412293-282.156855zM715.456902 715.226502v51.087607h51.087607v-51.087607h-51.087607z m102.175214 0v51.087607h51.087607v-51.087607h-51.087607z m-204.350429 0v51.087607h51.087607v-51.087607h-51.087607z" fill="#1296db" p-id="11763"></path></svg>