<?xml version="1.0" standalone="no"?><!DOCTYPE svg PUBLIC "-//W3C//DTD SVG 1.1//EN" "http://www.w3.org/Graphics/SVG/1.1/DTD/svg11.dtd"><svg t="1732939246817" class="icon" viewBox="0 0 1024 1024" version="1.1" xmlns="http://www.w3.org/2000/svg" p-id="7781" xmlns:xlink="http://www.w3.org/1999/xlink" width="200" height="200"><path d="M243.456 858.7776a25.9072 25.9072 0 0 1-25.3952-25.8048v-74.8544c0-123.4944 73.2672-233.1648 186.6752-279.4496l9.3696-3.84-7.936-6.5024a167.424 167.424 0 0 1-61.952-130.7136c0-93.4912 76.032-169.5232 169.5232-169.5232s169.5232 76.032 169.5232 169.5232c0 88.5248-69.5808 162.816-158.3616 169.1648l-5.7344 0.8192a250.4704 250.4704 0 0 0-250.3168 250.4704v74.8544a26.0096 26.0096 0 0 1-7.5264 18.2784 25.2928 25.2928 0 0 1-17.8688 7.5776z m270.2848-639.8976a118.7328 118.7328 0 0 0-118.784 118.3744 118.6816 118.6816 0 0 0 118.784 118.272c65.536 0 118.784-53.0432 118.784-118.272a118.7328 118.7328 0 0 0-118.784-118.3744z m280.4736 639.488a25.9072 25.9072 0 0 1-25.3952-25.8048v-74.8544c0-79.2576-38.0416-154.624-101.7856-201.6768a26.0608 26.0608 0 0 1-5.12-35.9936 25.344 25.344 0 0 1 35.3792-5.632 305.3056 305.3056 0 0 1 122.368 243.712v74.4448a26.112 26.112 0 0 1-25.4464 25.8048zM926.8224 776.4992a22.4768 22.4768 0 0 1-22.1184-22.1184v-77.1584c0-86.3744-58.368-160.768-141.9776-180.8896a21.8112 21.8112 0 0 1-16.5888-18.7904 21.9136 21.9136 0 0 1 12.032-22.7328A100.1472 100.1472 0 0 0 814.08 364.9024a99.84 99.84 0 0 0-99.4304-99.8912 22.4768 22.4768 0 0 1-22.1184-22.1184c0-11.9808 10.1376-22.1184 22.1184-22.1184a143.9232 143.9232 0 0 1 143.5648 144.0256c0 34.2016-11.3664 65.9456-32.9728 91.8528l-9.0624 10.9056 12.4928 6.7584a230.0928 230.0928 0 0 1 120.064 202.752v77.1584a22.3232 22.3232 0 0 1-21.9136 22.272z m-828.928-0.9216a22.4768 22.4768 0 0 1-22.1184-22.1184v-76.6464c0-84.3776 45.9264-161.8944 120.064-202.2912l12.4928-6.7584-9.0624-10.9568a141.9264 141.9264 0 0 1-32.9216-91.8528 143.9232 143.9232 0 0 1 143.5136-144.0256c11.9296 0 22.1184 10.1376 22.1184 22.1184a22.4256 22.4256 0 0 1-22.1184 22.1184A99.7376 99.7376 0 0 0 210.432 365.056c0 38.7584 21.4016 73.1648 56.064 89.9584a22.7328 22.7328 0 0 1 11.9296 22.5792 20.1728 20.1728 0 0 1-16.0256 17.8176 185.6512 185.6512 0 0 0-142.4896 181.0432v77.1584a22.272 22.272 0 0 1-22.016 21.9648z" p-id="7782" fill="#515151"></path></svg>