<?xml version="1.0" standalone="no"?><!DOCTYPE svg PUBLIC "-//W3C//DTD SVG 1.1//EN" "http://www.w3.org/Graphics/SVG/1.1/DTD/svg11.dtd"><svg t="1731077233835" class="icon" viewBox="0 0 1024 1024" version="1.1" xmlns="http://www.w3.org/2000/svg" p-id="14059" xmlns:xlink="http://www.w3.org/1999/xlink" width="200" height="200"><path d="M675.144225 563.357482c6.397813 0 12.795625-9.596719 12.795626-15.994532V480.185916c0-63.978127-86.370472-63.978127-86.370473-63.978127h-179.138756s-83.171566 0-79.97266 60.779221v60.779221c0 6.397813 6.397813 12.795625 12.795626 15.994532 0 0 99.166098 28.790157 99.166097 89.569379V832.065618c0 70.37594-239.917978 76.773753-239.917978 76.773753-9.596719 0-19.193438 9.596719-19.193438 19.193438v76.773753c0 3.198906 3.198906 9.596719 6.397813 12.795625 3.198906 3.198906 9.596719 6.397813 12.795625 6.397813h598.195492c6.397813 0 9.596719-3.198906 12.795626-6.397813 3.198906-3.198906 6.397813-6.397813 6.397812-12.795625V928.032809c0-9.596719-9.596719-19.193438-19.193438-19.193438 0 0-236.719072 0-236.719072-76.773753v-188.735476c0-67.177034 99.166098-79.972659 99.166098-79.97266zM396.839371 54.731369h6.397812v-19.193439c0-19.193438 15.994532-35.18797 38.386877-35.18797H575.978127c22.392345-3.198906 41.585783 15.994532 41.585783 38.386877v15.994532h6.397813c214.326727 47.983596 364.675327 227.122353 364.675327 435.051267 0 102.365004-35.18797 195.133289-102.365004 275.105948-22.392345 25.591251-44.784689 47.983596-70.37594 70.37594-9.596719 6.397813-15.994532 12.795625-15.994532 12.795625-9.596719 6.397813-19.193438 3.198906-25.591251-3.198906l-60.779221-73.574847c-6.397813-6.397813-6.397813-19.193438 3.198906-25.591251l9.596719-6.397812c19.193438-15.994532 38.386876-35.18797 54.381408-54.381409 51.182502-60.779221 79.972659-124.757349 79.97266-195.133288 0-175.939851-153.547506-323.089544-342.282982-323.089544h-3.198907c-185.53657 0-339.084076 143.950787-339.084075 323.089544 0 67.177034 25.591251 134.354068 76.773753 195.133288 15.994532 19.193438 35.18797 38.386876 54.381408 54.381409l9.596719 9.596719c9.596719 6.397813 9.596719 15.994532 3.198907 25.591251l-63.978128 73.574846c-6.397813 6.397813-19.193438 9.596719-25.591251 3.198907 0 0-3.198906-3.198906-19.193438-12.795626-28.790157-22.392345-51.182502-44.784689-73.574847-70.37594-67.177034-79.972659-102.365004-172.740944-102.365004-275.105948C35.36295 288.251534 185.71155 105.913871 396.839371 54.731369z" fill="#0086F6" p-id="14060"></path></svg>