<?xml version="1.0" standalone="no"?><!DOCTYPE svg PUBLIC "-//W3C//DTD SVG 1.1//EN" "http://www.w3.org/Graphics/SVG/1.1/DTD/svg11.dtd"><svg t="1731080652819" class="icon" viewBox="0 0 1024 1024" version="1.1" xmlns="http://www.w3.org/2000/svg" p-id="6045" xmlns:xlink="http://www.w3.org/1999/xlink" width="200" height="200"><path d="M539.6 524.2m-419.7 0a419.7 419.7 0 1 0 839.4 0 419.7 419.7 0 1 0-839.4 0Z" fill="#FFCC00" p-id="6046"></path><path d="M214.7 356.7c-1.1 0-2.3-0.3-3.4-0.8-3.6-1.9-5-6.3-3.1-9.9 13.2-25.4 29.3-49.4 47.9-71.4a7.3 7.3 0 0 1 10.3-0.9 7.3 7.3 0 0 1 0.9 10.3c-17.8 21.1-33.4 44.3-46.1 68.7-1.4 2.6-3.9 4-6.5 4zM809.5 710.7c-1.4 0-2.8-0.4-4-1.2-3.4-2.2-4.3-6.8-2.1-10.1 8.7-13.2 16.7-27.2 23.6-41.4 1.8-3.6 6.2-5.1 9.8-3.4 3.6 1.8 5.1 6.2 3.4 9.8-7.2 14.8-15.5 29.3-24.6 43-1.4 2.2-3.7 3.3-6.1 3.3zM288.2 258.3c-1.9 0-3.8-0.7-5.2-2.2-2.8-2.9-2.7-7.5 0.2-10.3l3-2.9c2.9-2.8 7.6-2.6 10.3 0.3 2.8 2.9 2.7 7.6-0.3 10.3l-2.9 2.7c-1.5 1.5-3.3 2.1-5.1 2.1z" fill="#FFFFFF" p-id="6047"></path><path d="M193.2 220.4c-2 0-4-0.8-5.4-2.4-2.7-3-2.5-7.6 0.5-10.3 2-1.8 4-3.7 6.1-5.4 3-2.7 7.7-2.4 10.3 0.7 2.7 3 2.4 7.7-0.7 10.3-2 1.7-3.9 3.5-5.9 5.3-1.3 1.2-3.1 1.8-4.9 1.8zM491.2 935.1c-235.5 0-427-191.6-427-427 0-97 33.4-192 94.2-267.5 2.5-3.1 7.1-3.6 10.3-1.1 3.1 2.5 3.6 7.1 1.1 10.3-58.6 72.9-90.9 164.6-90.9 258.3 0 227.4 185 412.4 412.4 412.4 126.5 0 244.2-56.9 323-156 2.5-3.1 7.1-3.7 10.3-1.2 3.2 2.5 3.7 7.1 1.2 10.3-81.7 102.6-203.6 161.5-334.6 161.5zM857.5 720.4c-1.2 0-2.4-0.3-3.6-0.9-3.5-2-4.8-6.4-2.8-10 34.3-61.2 52.4-130.8 52.4-201.4 0-227.4-185-412.4-412.4-412.4-74 0-146.6 19.8-210 57.4-3.5 2.1-8 0.9-10-2.6-2.1-3.5-0.9-8 2.6-10 65.6-38.9 140.8-59.4 217.4-59.4 235.5 0 427 191.6 427 427 0 73.1-18.8 145.2-54.3 208.6-1.2 2.3-3.7 3.7-6.3 3.7z" p-id="6048"></path><path d="M457.4 707c-4.7 0-9.4-1.8-12.9-5.4-7.1-7.1-7.1-18.7 0-25.8l151.6-151.6-151.6-151.6c-7.1-7.1-7.1-18.7 0-25.8 7.1-7.1 18.7-7.1 25.8 0l177.4 177.4-177.4 177.5c-3.6 3.5-8.2 5.3-12.9 5.3z" fill="#FFFFFF" p-id="6049"></path></svg>