<?xml version="1.0" standalone="no"?><!DOCTYPE svg PUBLIC "-//W3C//DTD SVG 1.1//EN" "http://www.w3.org/Graphics/SVG/1.1/DTD/svg11.dtd"><svg t="1731051035282" class="icon" viewBox="0 0 1056 1024" version="1.1" xmlns="http://www.w3.org/2000/svg" p-id="1053" xmlns:xlink="http://www.w3.org/1999/xlink" width="206.25" height="200"><path d="M959.455355 568.086755l-127.169456-219.385988c-12.214066-21.072999-34.937313-34.193586-59.300773-34.237073l-253.58961-0.446013c-24.390221-0.036796-47.097858 13.02804-59.257287 34.089889L333.722535 567.065385c-12.16612 21.072999-12.127093 47.270688 0.112619 68.365988l127.173916 219.389333c6.105918 10.540402 14.837737 19.086011 25.093806 25.006834 10.254954 5.920823 22.021892 9.210168 34.208082 9.231354l253.57846 0.438208c24.389106 0.052407 47.096742-13.013544 59.262862-34.086544l126.415694-218.957816c12.16612-21.071884 12.127093-47.270688-0.112619-68.365987z" fill="#60C5F0" p-id="1054"></path><path d="M752.140709 187.911966l-304.822008-175.283108c-29.279638-16.838106-65.664264-16.838106-94.952822 0l-304.838734 175.283108C18.209596 204.779063 0 236.211829 0 269.933756v350.585172c0 33.740883 18.210711 65.174764 47.53495 82.020675l304.830929 175.284223c14.639262 8.42407 31.051425 12.632203 47.471393 12.632204 16.421084 0 32.833247-4.208133 47.481429-12.632204l304.822008-175.284223c29.32424-16.845911 47.53495-48.279792 47.53495-82.020675V269.933756c0-33.739768-18.210711-65.173649-47.53495-82.02179zM216.821414 445.371854c0-102.194958 82.839109-185.034067 185.034067-185.034067 102.194958 0 185.034067 82.839109 185.034067 185.034067 0 102.196073-82.839109 185.034067-185.034067 185.034067-102.194958 0-185.034067-82.837994-185.034067-185.034067z" fill="#CCE0FF" opacity=".9" p-id="1055"></path></svg>