<?xml version="1.0" standalone="no"?><!DOCTYPE svg PUBLIC "-//W3C//DTD SVG 1.1//EN" "http://www.w3.org/Graphics/SVG/1.1/DTD/svg11.dtd"><svg t="1733228121270" class="icon" viewBox="0 0 1024 1024" version="1.1" xmlns="http://www.w3.org/2000/svg" p-id="6101" xmlns:xlink="http://www.w3.org/1999/xlink" width="200" height="200"><path d="M570.3 138.5l83 151.2c9.8 17.8 27 30.3 46.9 34.1L869.7 356c52.7 10 73.6 74.3 36.8 113.4L788.3 595c-13.9 14.8-20.5 35-17.9 55.2l21.8 171.1c6.8 53.2-47.9 93-96.5 70.1l-156-73.6c-18.4-8.7-39.7-8.7-58 0l-156 73.6c-48.5 22.9-103.2-16.8-96.5-70.1L251 650.2c2.6-20.1-4-40.4-17.9-55.2L114.8 469.4C78.1 430.3 99 366 151.7 356l169.5-32.2c20-3.8 37.2-16.3 46.9-34.1l83-151.2c25.8-47.1 93.4-47.1 119.2 0z" fill="#dbdbdb" p-id="6102"></path></svg>